# Blender 3.3.1
# www.blender.org
mtllib tabletop1.mtl
o Cube
v 0.762000 0.015875 -0.381000
v 0.762000 -0.015875 -0.381000
v 0.762000 0.015875 0.381000
v 0.762000 -0.015875 0.381000
v -0.762000 0.015875 -0.381000
v -0.762000 -0.015875 -0.381000
v -0.762000 0.015875 0.381000
v -0.762000 -0.015875 0.381000
vn -0.0000 1.0000 -0.0000
vn -0.0000 -0.0000 1.0000
vn -1.0000 -0.0000 -0.0000
vn -0.0000 -1.0000 -0.0000
vn 1.0000 -0.0000 -0.0000
vn -0.0000 -0.0000 -1.0000
vt 0.186224 0.519000
vt 0.186224 0.617000
vt 0.823979 0.519000
vt 0.823979 0.617000
vt 0.186224 0.421000
vt -0.451531 0.519000
vt 0.186224 0.715000
vt -0.451531 0.617000
vt 0.823979 0.421000
vt 1.461735 0.519000
vt -1.089286 0.519000
vt 1.461735 0.617000
vt -1.089286 0.617000
vt 0.823979 0.715000
s 0
usemtl Material
f 1/1/1 5/5/1 7/9/1 3/3/1
f 4/4/2 3/3/2 7/10/2 8/12/2
f 8/13/3 7/11/3 5/6/3 6/8/3
f 6/7/4 2/2/4 4/4/4 8/14/4
f 2/2/5 1/1/5 3/3/5 4/4/5
f 6/8/6 5/6/6 1/1/6 2/2/6
